PathFileType	4	(X/Y/Z)	C:\Users\GVLAB1\Desktop\Emotion\trc\EMLATRE05.4.trc																																																																																																																									
DataRate	CameraRate	NumFrames	NumMarkers	Units	OrigDataRate	OrigDataStartFrame	OrigNumFrames																																																																																																																					
30	30	5	41	mm	30	114	302																																																																																																																					
Frame#	Time	EMLA_LFHD			EMLA_RFHD			EMLA_LBHD			EMLA_RBHD			EMLA_LFTShould			EMLA_RFTShould			EMLA_LRRShould			EMLA_RRRShould			EMLA_T10			EMLA_STRN			EMLA_TRUN			EMLA_LSHO			EMLA_LUPA			EMLA_LELB			EMLA_LFRM			EMLA_LWRA			EMLA_LWRB			EMLA_LFIN			EMLA_RSHO			EMLA_RUPA			EMLA_RELB			EMLA_RFRM			EMLA_RWRA			EMLA_RWRB			EMLA_RFIN			EMLA_LFWT			EMLA_RFWT			EMLA_LBWT			EMLA_RBWT			EMLA_LHTI			EMLA_LKNE			EMLA_LSHN			EMLA_LANK			EMLA_LHEE			EMLA_LTOE			EMLA_RTHI			EMLA_RKNE			EMLA_RSHN			EMLA_RANK			EMLA_RHEE			EMLA_RTOE		
		X1	Y1	Z1	X2	Y2	Z2	X3	Y3	Z3	X4	Y4	Z4	X5	Y5	Z5	X6	Y6	Z6	X7	Y7	Z7	X8	Y8	Z8	X9	Y9	Z9	X10	Y10	Z10	X11	Y11	Z11	X12	Y12	Z12	X13	Y13	Z13	X14	Y14	Z14	X15	Y15	Z15	X16	Y16	Z16	X17	Y17	Z17	X18	Y18	Z18	X19	Y19	Z19	X20	Y20	Z20	X21	Y21	Z21	X22	Y22	Z22	X23	Y23	Z23	X24	Y24	Z24	X25	Y25	Z25	X26	Y26	Z26	X27	Y27	Z27	X28	Y28	Z28	X29	Y29	Z29	X30	Y30	Z30	X31	Y31	Z31	X32	Y32	Z32	X33	Y33	Z33	X34	Y34	Z34	X35	Y35	Z35	X36	Y36	Z36	X37	Y37	Z37	X38	Y38	Z38	X39	Y39	Z39	X40	Y40	Z40	X41	Y41	Z41
																																																																																																																												
114	0.565	425.13348	1481.06921	-1004.40302	257.73428	1471.54382	-1036.71436	450.36542	1598.0249	-1097.34338	258.81894	1590.67859	-1132.78516	453.79913	1373.35608	-1171.35339	306.60101	1364.50439	-1182.19336	456.14099	1453.89941	-1305.15747	300.57544	1445.08252	-1315.61377	396.47641	1291.2981	-1391.5929	377.92941	1299.20715	-1151.08252	373.59283	1193.79871	-1152.79114	581.84454	1409.61829	-1208.69019	645.73395	1229.92383	-1239.22461	665.17566	1087.46179	-1255.98157	669.13306	952.35754	-1261.97375	586.45764	800.18365	-1197.20911	647.45367	787.09961	-1257.05457	638.45807	749.40967	-1198.60071	187.98294	1410.21167	-1247.17261	124.80155	1221.96069	-1282.38574	103.03356	1086.40771	-1328.44873	100.03566	982.76025	-1341.71863	155.03407	814.51385	-1241.76904	113.55071	801.25153	-1317.97229	97.34077	767.02423	-1264.25085	470.48318	981.25275	-1189.27075	238.7166	973.46155	-1234.12073	478.02274	1010.89264	-1393.60498	301.8064	1013.7713	-1410.94373	520.40808	708.17969	-1341.05017	519.01685	511.59583	-1264.84949	483.97275	326.17294	-1260.82507	481.80981	156.62935	-1347.23474	414.73721	87.10276	-1417.42334	438.83237	64.21071	-1221.14209	254.53276	699.76343	-1413.57898	181.16045	513.80383	-1360.49878	228.25148	310.94583	-1456.39282	227.25641	224.11758	-1616.87036	301.00278	208.85796	-1667.02014	205.75232	80.5293	-1547.89844
115	0.57	432.39432	1478.39929	-991.94983	264.46677	1471.01001	-1023.74683	458.51691	1596.11426	-1083.38159	266.51031	1591.4491	-1118.0166	458.66586	1373.09961	-1157.76685	311.55475	1365.51379	-1170.73352	463.65149	1453.97754	-1291.33447	308.04468	1446.34814	-1303.98486	403.88766	1291.97107	-1378.7915	381.98117	1299.69629	-1138.55188	376.91354	1194.39014	-1140.25916	586.7691	1408.0387	-1192.46545	649.26807	1227.79285	-1212.36438	668.26221	1083.76697	-1221.03174	675.29083	950.0528	-1223.48706	592.73193	796.42041	-1161.94666	658.41162	784.59949	-1217.21289	646.03979	747.22882	-1159.31873	194.04465	1412.22571	-1237.25854	130.87297	1224.12366	-1273.48914	109.5528	1088.52087	-1319.92578	106.47192	984.98163	-1333.63501	159.8528	816.2962	-1233.50342	119.34573	803.37048	-1310.34167	102.40724	768.99628	-1256.97473	475.87939	982.53516	-1175.40845	243.27475	975.15863	-1218.8114	482.07755	1011.54492	-1380.18225	305.85352	1013.27026	-1397.64697	524.32233	710.16443	-1332.51953	521.59265	511.79919	-1261.84656	485.78494	326.45172	-1259.06201	483.04965	157.36208	-1346.48865	415.89651	88.49672	-1417.22974	439.09283	64.17316	-1221.08044	256.38861	696.56091	-1390.49121	187.04897	512.45886	-1328.19214	237.53719	312.06577	-1424.99683	243.28957	227.92221	-1587.33191	319.36307	210.36957	-1634.06323	211.21419	86.57929	-1520.08704
116	0.575	438.04269	1475.93494	-980.61554	270.13736	1470.35583	-1012.53406	464.59378	1594.45129	-1070.19531	272.94501	1591.94531	-1104.88916	462.8764	1372.85779	-1145.41345	315.88785	1366.42053	-1160.13855	470.30252	1453.68774	-1278.86877	314.77783	1447.1416	-1293.21289	410.29138	1291.91113	-1366.73767	385.51547	1300.26965	-1126.9281	379.82822	1195.02881	-1128.32349	591.46002	1406.93286	-1178.62231	651.49756	1225.8219	-1188.16235	669.37036	1081.48792	-1188.32959	678.82959	949.16229	-1185.8269	597.9978	794.47839	-1124.81177	667.26544	783.66675	-1175.73999	652.69098	747.18036	-1117.78894	199.4319	1413.99304	-1227.92944	136.48561	1225.67847	-1264.95374	115.94449	1090.13501	-1311.30359	112.80638	986.69067	-1325.26746	164.39156	817.64227	-1224.68591	124.96381	805.07068	-1302.16614	107.13243	770.58252	-1249.10583	480.42542	983.28192	-1162.34436	248.31888	975.784	-1206.11975	485.4881	1011.79767	-1367.22009	309.32208	1012.43781	-1384.41541	527.64545	711.60376	-1324.75708	523.70544	511.81653	-1259.35193	487.32431	326.54822	-1257.6178	483.65445	158.06044	-1346.04919	416.20563	89.74028	-1416.99084	439.22687	64.091	-1221.03772	257.83331	694.28619	-1369.67529	193.5878	511.28082	-1297.25964	246.95901	310.59445	-1391.17505	255.17445	224.40266	-1552.11572	332.27759	205.71957	-1598.422	221.90157	87.04153	-1481.25293
117	0.58	442.14923	1475.13538	-969.62927	274.44662	1470.76282	-1002.33038	469.79584	1594.1709	-1058.50671	278.2865	1592.79858	-1094.02942	466.76135	1372.78491	-1133.62134	320.49194	1367.05981	-1149.85901	475.96021	1453.13367	-1267.16956	320.44846	1447.43896	-1282.80029	415.72638	1291.40186	-1354.91113	388.74005	1300.797	-1115.50757	382.64816	1195.60962	-1116.38623	594.98438	1405.88818	-1164.91638	653.05322	1224.59033	-1167.59851	669.79346	1080.74609	-1159.70996	680.69855	949.4574	-1151.19397	601.36621	795.5033	-1086.1001	672.79346	784.50226	-1134.34888	657.71759	750.06049	-1075.35229	204.10336	1415.27222	-1218.45435	141.49084	1226.81116	-1256.13306	121.68208	1091.23157	-1302.51392	118.68119	987.70837	-1316.40564	168.76193	818.7865	-1214.63403	130.51099	806.138	-1293.00183	111.87099	771.76337	-1240.17761	484.92841	983.4577	-1150.36182	252.61514	976.15631	-1192.67432	488.18475	1011.31952	-1355.12622	311.85565	1011.12201	-1371.44897	529.84045	712.63263	-1317.16077	525.44116	511.76715	-1256.29211	488.6181	326.7171	-1255.8324	484.16354	158.84615	-1345.30945	416.42755	91.10074	-1416.44568	439.40213	64.07657	-1220.76489	259.86777	691.71521	-1349.2218	200.51418	509.84897	-1266.8291	256.68365	307.14624	-1354.91858	264.53946	215.54703	-1512.85559	341.78528	195.7209	-1560.14465	234.31047	83.68003	-1434.51819
118	0.585	444.9754	1476.46643	-958.71814	277.47568	1472.74756	-992.53552	473.95221	1594.67578	-1048.30579	282.61508	1594.03418	-1085.14319	470.07825	1372.80505	-1122.12878	323.04828	1367.9823	-1138.64685	480.65848	1452.42639	-1256.01892	325.01099	1447.31116	-1272.41187	420.06924	1290.57056	-1343.35742	391.68082	1301.09961	-1104.22766	385.38297	1195.99011	-1104.70398	598.29401	1405.52026	-1152.54602	654.53302	1223.92334	-1149.92908	670.57843	1080.72217	-1135.64539	681.34686	950.15686	-1120.49866	603.25336	800.08533	-1045.92896	673.99921	786.42944	-1094.80225	660.27081	755.51141	-1033.58691	207.98145	1415.80237	-1208.44702	145.48607	1227.24597	-1246.72803	126.40116	1091.55884	-1293.09546	123.70237	987.95422	-1306.84082	173.43816	819.54041	-1203.54822	135.81601	806.4848	-1282.79785	116.92652	772.08942	-1230.13684	489.01221	983.34247	-1138.32458	256.24356	976.31305	-1179.10645	490.13708	1010.64197	-1343.3999	313.53107	1009.66486	-1359.13049	531.67639	713.65314	-1309.70203	526.89392	511.82907	-1253.2113	489.69373	326.90051	-1253.8811	484.89526	159.5733	-1344.45166	416.99765	92.46305	-1416.11487	439.20834	63.91926	-1220.54053	262.01883	688.95886	-1328.47571	208.14587	508.67114	-1237.11157	265.76511	302.63193	-1316.94617	272.05673	203.53812	-1470.45215	349.16867	180.87048	-1518.38733	243.65298	79.59059	-1382.74255
